HIERARCHY
ROOT Hips
{
	OFFSET 0.000000 0.000000 0.000000 
	CHANNELS 6 Xposition Yposition Zposition Zrotation Yrotation Xrotation
	JOINT LeftUpLeg
	{
		OFFSET 1.363060 -1.794630 0.839290 
		CHANNELS 3 Zrotation Yrotation Xrotation
		JOINT LeftLeg
		{
			OFFSET 2.448110 -6.726130 0.000000 
			CHANNELS 3 Zrotation Yrotation Xrotation
			JOINT LeftFoot
			{
				OFFSET 2.562200 -7.039590 0.000000 
				CHANNELS 3 Zrotation Yrotation Xrotation
				JOINT LeftToeBase
				{
					OFFSET 0.157640 -0.433110 2.322550 
					CHANNELS 3 Zrotation Yrotation Xrotation
					End Site
					{
						OFFSET 0.000000 0.000000 0.000000 
					}
				}
			}
		}
	}
	JOINT RightUpLeg
	{
		OFFSET -1.305520 -1.794630 0.839290 
		CHANNELS 3 Zrotation Yrotation Xrotation
		JOINT RightLeg
		{
			OFFSET -2.542530 -6.985550 0.000000 
			CHANNELS 3 Zrotation Yrotation Xrotation
			JOINT RightFoot
			{
				OFFSET -2.568260 -7.056230 0.000000 
				CHANNELS 3 Zrotation Yrotation Xrotation
				JOINT RightToeBase
				{
					OFFSET -0.164730 -0.452590 2.363150 
					CHANNELS 3 Zrotation Yrotation Xrotation
					End Site
					{
						OFFSET 0.000000 0.000000 0.000000 
					}
				}
			}
		}
	}
	JOINT Spine
	{
		OFFSET 0.028270 2.035590 -0.193380 
		CHANNELS 3 Zrotation Yrotation Xrotation
		JOINT Spine1
		{
			OFFSET 0.056720 2.048850 -0.042750 
			CHANNELS 3 Zrotation Yrotation Xrotation
			JOINT Neck1
			{
				OFFSET -0.054170 1.746240 0.172020 
				CHANNELS 3 Zrotation Yrotation Xrotation
				JOINT Head
				{
					OFFSET 0.104070 1.761360 -0.123970 
					CHANNELS 3 Zrotation Yrotation Xrotation
					End Site
					{
						OFFSET 0.000000 0.000000 0.000000 
					}
				}
			}
			JOINT LeftArm
			{
				OFFSET 3.362410 1.200890 -0.311210 
				CHANNELS 3 Zrotation Yrotation Xrotation
				JOINT LeftForeArm
				{
					OFFSET 4.983000 -0.000000 -0.000000 
					CHANNELS 3 Zrotation Yrotation Xrotation
					JOINT LeftHand
					{
						OFFSET 3.483560 -0.000000 -0.000000 
						CHANNELS 3 Zrotation Yrotation Xrotation
						JOINT LeftHandIndex1
						{
							OFFSET 0.715260 -0.000000 -0.000000 
							CHANNELS 3 Zrotation Yrotation Xrotation
							End Site
							{
								OFFSET 0.000000 0.000000 0.000000 
							}
						}
					}
				}
			}
			JOINT RightArm
			{
				OFFSET -3.136600 1.374050 -0.404650 
				CHANNELS 3 Zrotation Yrotation Xrotation
				JOINT RightForeArm
				{
					OFFSET -5.241900 -0.000000 -0.000000 
					CHANNELS 3 Zrotation Yrotation Xrotation
					JOINT RightHand
					{
						OFFSET -3.444170 -0.000000 -0.000000 
						CHANNELS 3 Zrotation Yrotation Xrotation
						JOINT RightHandIndex1
						{
							OFFSET -0.622530 -0.000000 -0.000000 
							CHANNELS 3 Zrotation Yrotation Xrotation
							End Site
							{
								OFFSET 0.000000 0.000000 0.000000 
							}
						}
					}
				}
			}
		}
	}
}
MOTION
Frames: 15
Frame Time: 0.041667
-31.402699 17.450217 1.670520 80.482391 84.827063 74.482901 -22.680530 3.425924 13.823382 -2.033594 1.113547 2.284634 -0.754641 9.910985 -12.639904 0.782100 -5.646100 -15.760900 10.531855 -13.451040 20.557537 -0.496007 -2.051862 1.607143 -0.513230 2.660481 -13.500806 -0.180100 -2.733200 7.536800 -0.304614 0.991481 -2.285935 -0.699652 0.168591 2.839299 7.307129 -8.634014 11.339212 0.190600 -3.045900 12.083600 -76.421172 -20.263142 39.022891 13.574005 -23.264730 -3.232699 0.263721 0.666871 11.301227 -7.125000 0.000000 0.000000 77.666253 19.112605 43.445965 -20.288834 34.405440 -5.430132 0.694221 -2.189193 2.614263 7.125000 0.000000 0.000000 
-31.399213 17.448986 1.669392 78.089717 84.823129 72.166086 -22.708679 3.443014 13.830068 -2.039369 1.080463 2.207299 -0.765055 10.039844 -12.833759 0.763200 -5.578900 -15.567200 10.541248 -13.393348 20.409059 -0.505247 -2.069816 1.646890 -0.510332 2.872585 -13.373220 -0.178000 -2.717300 7.492700 -0.321118 1.107612 -2.285573 -0.795136 0.216549 2.946559 7.331197 -8.224094 11.426235 0.250500 -2.853800 12.121300 -75.723698 -21.192596 39.226344 13.833374 -23.591055 -3.334745 0.261204 0.659246 11.186883 -7.125000 0.000000 0.000000 77.210131 19.832256 43.259500 -20.473700 34.590845 -5.521738 0.715646 -2.186513 2.473324 7.125000 0.000000 0.000000 
-31.416954 17.448063 1.679339 79.512706 85.196827 73.658348 -22.189674 3.297014 13.606446 -2.027668 1.134704 2.389036 -0.743641 9.806192 -12.711919 0.710800 -5.388300 -15.019600 11.275535 -13.187019 20.311629 -0.503211 -2.079887 1.633356 -0.509432 2.471107 -13.562455 -0.167000 -2.633000 7.258700 -0.276223 0.984435 -2.313949 -0.786074 0.152035 2.870976 7.473996 -7.760145 11.487600 0.419100 -2.643900 12.192600 -75.025367 -22.141915 39.476116 14.122073 -23.936018 -3.447833 0.263436 0.651279 11.128000 -7.125000 0.000000 0.000000 76.706923 20.668229 43.100426 -20.616413 34.702217 -5.582312 0.732743 -2.172665 2.275108 7.125000 0.000000 0.000000 
-31.406494 17.451345 1.676160 74.226644 85.431025 68.433964 -21.906793 3.377324 13.772913 -2.030344 1.033784 2.189772 -0.782905 10.106478 -12.884033 0.707800 -5.377100 -14.987300 11.737265 -12.947703 20.048202 -0.516484 -2.167428 1.820089 -0.508303 2.717213 -13.479738 -0.175100 -2.695900 7.433100 -0.257908 1.156269 -2.303574 -0.848833 0.211402 3.031837 7.458413 -7.437719 11.582851 0.456100 -2.498100 12.285800 -74.274411 -23.063446 39.813004 14.494279 -24.406858 -3.600236 0.274831 0.637948 10.630076 -7.125000 0.000000 0.000000 76.205070 21.489820 42.906217 -20.737796 34.804055 -5.628000 0.751641 -2.151330 1.956719 7.125000 0.000000 0.000000 
-31.435207 17.450012 1.692773 77.054417 85.411858 71.326517 -21.632146 3.687124 13.183500 -1.999433 1.184721 2.564024 -0.725286 9.539469 -12.393224 0.789700 -5.672700 -15.837600 12.020821 -12.603579 20.020493 -0.512660 -2.145235 1.794328 -0.510368 2.148023 -13.781897 -0.186600 -2.782100 7.672800 -0.252218 1.079448 -2.348282 -0.766517 0.182168 2.829228 7.401313 -7.110697 11.584896 0.415300 -2.346200 12.324500 -73.529803 -24.133695 39.699195 14.694977 -24.624959 -3.687140 0.310230 0.639832 10.587543 -7.125000 0.000000 0.000000 75.805618 22.403309 42.543625 -20.810637 34.824239 -5.653200 0.770397 -2.134356 1.632240 7.125000 0.000000 0.000000 
-31.435310 17.454319 1.695029 75.982715 85.388227 70.199254 -21.766647 3.446537 13.453266 -2.017246 1.115678 2.391822 -0.769529 9.893492 -12.534252 0.774500 -5.619000 -15.683000 12.062741 -12.526672 20.044787 -0.511507 -2.152267 1.811655 -0.504720 2.030564 -13.757841 -0.131000 -2.333300 6.427800 -0.256305 1.130698 -2.343582 -0.823748 0.202200 2.868405 7.301020 -6.685782 11.603678 0.341800 -2.146000 12.336700 -72.693040 -24.989210 39.930990 15.039255 -25.052670 -3.837193 0.326842 0.645076 10.436976 -7.125000 0.000000 0.000000 75.372050 23.281927 42.241454 -20.907313 34.895005 -5.694787 0.794358 -2.120666 1.308962 7.125000 0.000000 0.000000 
-31.437771 17.459241 1.698516 75.915372 85.479688 70.128028 -21.666291 3.358552 13.487796 -2.018627 1.100521 2.367093 -0.770991 9.906217 -12.572686 0.783700 -5.651600 -15.776800 12.280643 -12.489365 20.005752 -0.508771 -2.154128 1.797684 -0.498579 1.823132 -13.778865 -0.094200 -1.979600 5.449400 -0.231813 1.108356 -2.350966 -0.864766 0.186921 2.935964 6.996039 -6.201686 11.770247 0.079900 -1.893500 12.486200 -71.925481 -25.773242 39.848056 15.427107 -25.533751 -4.009675 0.349056 0.640132 10.417161 -7.125000 0.000000 0.000000 74.885620 24.149151 41.932600 -21.079357 35.024150 -5.761898 0.827462 -2.101023 0.959255 7.125000 0.000000 0.000000 
-31.427824 17.466522 1.693388 72.131711 85.503582 66.356118 -21.553241 3.649698 13.536987 -2.012633 1.054019 2.276508 -0.776155 9.971183 -12.678894 0.825500 -5.796900 -16.196100 12.356758 -12.442988 19.814822 -0.517933 -2.219196 1.946286 -0.501755 2.138997 -13.695435 -0.127900 -2.305100 6.349700 -0.238250 1.265683 -2.331292 -1.017787 0.249640 3.119554 6.762523 -5.839594 11.929623 -0.122900 -1.697100 12.616500 -71.203490 -26.690866 39.586422 15.732609 -25.905001 -4.147318 0.366912 0.632039 10.415586 -7.125000 0.000000 0.000000 74.481724 25.049127 41.529051 -21.157963 35.091381 -5.804805 0.832289 -2.091039 0.869109 7.125000 0.000000 0.000000 
-31.468536 17.468881 1.711027 78.763541 85.461769 72.964191 -21.392580 3.774304 12.916348 -1.983781 1.273031 2.799339 -0.709971 9.330048 -12.122064 0.934400 -6.157400 -17.241800 12.477853 -12.309060 19.909190 -0.501394 -2.186049 1.908536 -0.504591 1.362320 -14.146562 -0.116400 -2.199300 6.056800 -0.232907 1.035540 -2.391756 -0.945660 0.161472 2.786745 6.637822 -5.561120 12.027729 -0.251800 -1.540900 12.751800 -70.359307 -27.716260 39.429700 16.011197 -26.187352 -4.264498 0.387206 0.621984 10.086284 -7.125000 0.000000 0.000000 74.090052 25.972968 41.196883 -21.254431 35.128781 -5.855851 0.823252 -2.088698 0.894251 7.125000 0.000000 0.000000 
-31.454179 17.470419 1.705079 74.730815 85.343298 68.914713 -21.690405 3.656879 13.345772 -2.010395 1.126860 2.426855 -0.779785 9.932225 -12.442033 0.874400 -5.961700 -16.673400 12.276207 -12.351873 19.764494 -0.508244 -2.260567 2.101853 -0.508048 1.714228 -14.024192 -0.090300 -1.938000 5.334400 -0.258556 1.218491 -2.355560 -1.034151 0.231158 3.039555 6.572681 -5.232564 12.157411 -0.303600 -1.368300 12.877000 -69.543781 -28.722363 39.257681 16.268927 -26.490177 -4.381951 0.397013 0.618822 9.400311 -7.125000 0.000000 0.000000 73.603924 26.837021 40.969054 -21.363641 35.225514 -5.904895 0.821657 -2.073264 0.878584 7.125000 0.000000 0.000000 
-31.443514 17.475341 1.699336 71.504788 85.433329 65.665242 -21.603310 3.708248 13.552483 -2.014828 1.060736 2.290701 -0.805038 10.156141 -12.630254 0.817300 -5.768500 -16.114300 12.432862 -12.323047 19.669224 -0.513469 -2.313573 2.210628 -0.509724 1.940664 -13.956942 -0.116500 -2.200700 6.060500 -0.248167 1.341751 -2.328528 -1.086392 0.271254 3.227884 6.517203 -4.879720 12.262451 -0.321900 -1.200500 12.980200 -68.781011 -29.578643 39.523304 16.543389 -26.808936 -4.502228 0.361515 0.639454 9.469796 -7.125000 0.000000 0.000000 73.025638 27.729658 40.626748 -21.405041 35.233724 -5.909644 0.826054 -2.044145 0.895638 7.125000 0.000000 0.000000 
-31.450692 17.481597 1.703028 70.551641 85.615701 64.663088 -21.318640 3.811353 13.496628 -2.004540 1.092558 2.406650 -0.807820 10.127282 -12.547760 0.867300 -5.938200 -16.605200 12.916470 -12.058837 19.676918 -0.510616 -2.341560 2.262485 -0.507584 1.637363 -14.105357 -0.119100 -2.224700 6.127000 -0.220699 1.367886 -2.328729 -1.058126 0.275487 3.198564 6.459386 -4.577492 12.316616 -0.331700 -1.069800 13.030100 -67.997769 -30.463081 39.682207 16.900615 -27.205458 -4.653207 0.354342 0.618936 9.036712 -7.125000 0.000000 0.000000 72.427597 28.600301 40.202460 -21.476166 35.261438 -5.938357 0.830813 -2.025725 0.805689 7.125000 0.000000 0.000000 
-31.455615 17.486417 1.708566 69.934681 85.635155 63.893147 -21.344723 3.689013 13.754989 -2.014165 1.052944 2.319711 -0.836544 10.366668 -12.690351 0.849400 -5.877900 -16.430600 13.186125 -11.732200 19.892000 -0.505641 -2.335959 2.256404 -0.503029 1.299800 -14.225066 -0.127700 -2.303700 6.345700 -0.210418 1.405954 -2.315127 -1.013098 0.288237 3.170636 6.374728 -4.284684 12.329446 -0.372700 -0.946300 13.037200 -67.178267 -31.294845 39.880126 17.437302 -27.813888 -4.882766 0.342050 0.570938 7.900034 -7.125000 0.000000 0.000000 71.838302 29.435264 39.901991 -21.655542 35.412952 -6.033357 0.838885 -2.024673 0.652341 7.125000 0.000000 0.000000 
-31.456435 17.488263 1.710309 69.874601 85.574554 63.716211 -21.599670 3.335474 14.163467 -2.038878 0.963511 2.085634 -0.881052 10.762570 -12.951494 0.803100 -5.719500 -15.972600 13.093766 -11.752019 20.010171 -0.505306 -2.329332 2.247650 -0.500606 1.373226 -14.131281 -0.158000 -2.561100 7.059100 -0.201742 1.395998 -2.306225 -0.962849 0.277090 3.190991 6.237136 -3.928535 12.381550 -0.462200 -0.787700 13.088300 -66.347123 -32.013602 39.660000 17.687736 -28.088169 -5.005334 0.313331 0.609243 7.505134 -7.125000 0.000000 0.000000 71.244714 30.347338 39.857842 -21.808788 35.534954 -6.110980 0.851974 -2.023400 0.381756 7.125000 0.000000 0.000000 
-31.458178 17.488263 1.711642 70.353962 85.442988 64.180207 -21.942919 2.963054 14.430170 -2.064488 0.895428 1.887241 -0.929274 11.157941 -13.133028 0.789600 -5.672400 -15.836700 12.422465 -12.518726 19.673893 -0.511469 -2.429227 2.502002 -0.500952 2.199857 -13.698848 -0.148800 -2.486100 6.851200 -0.205284 1.339124 -2.302511 -0.910452 0.239937 3.269436 6.173220 -3.577511 12.477595 -0.495500 -0.622200 13.204400 -65.526362 -32.726059 39.070319 17.931057 -28.352902 -5.130672 0.315325 0.633326 7.452710 -7.125000 0.000000 0.000000 70.689291 31.366373 39.878123 -21.888156 35.577493 -6.138987 0.865094 -2.010400 0.107521 7.125000 0.000000 0.000000 
